<svg id="e86f5keaO4y1" xmlns="http://www.w3.org/2000/svg" xmlns:xlink="http://www.w3.org/1999/xlink" viewBox="0 0 24 24" shape-rendering="geometricPrecision" text-rendering="geometricPrecision" project-id="ea823aefc40f4063a533f05cd8f39645" export-id="33984ec5f91f44949dd85599d4455e72" cached="false"><path d="M12.0006,18.26L4.94715,22.2082l1.57533-7.9283L0.587891,8.7918L8.61493,7.84006L12.0006,0.5l3.3856,7.34006l8.027.95174-5.9345,5.4881l1.5753,7.9283L12.0006,18.26Z" transform="matrix(.256075 0 0 0.256075 0.703081 9.092499)" fill="#facc15"/><path d="M12.0006,18.26L4.94715,22.2082l1.57533-7.9283L0.587891,8.7918L8.61493,7.84006L12.0006,0.5l3.3856,7.34006l8.027.95174-5.9345,5.4881l1.5753,7.9283L12.0006,18.26Z" transform="matrix(.256075 0 0 0.256075 17.15084 9.092499)" fill="#fff" stroke="#facc15"/><path d="M12.0006,18.26L4.94715,22.2082l1.57533-7.9283L0.587891,8.7918L8.61493,7.84006L12.0006,0.5l3.3856,7.34006l8.027.95174-5.9345,5.4881l1.5753,7.9283L12.0006,18.26Z" transform="matrix(.256075 0 0 0.256075 8.926961 9.092499)" fill="none" stroke="#facc15"/></svg>
